<svg width="112" height="37" viewBox="0 0 112 37" fill="none" xmlns="http://www.w3.org/2000/svg">
<path d="M37.064 23.672C37.064 24.488 37.16 25.224 37.352 25.88C37.56 26.536 37.848 27.104 38.216 27.584C38.6 28.048 39.064 28.408 39.608 28.664C40.152 28.92 40.776 29.048 41.48 29.048C42.168 29.048 42.784 28.92 43.328 28.664C43.888 28.408 44.352 28.048 44.72 27.584C45.104 27.104 45.392 26.536 45.584 25.88C45.792 25.224 45.896 24.488 45.896 23.672C45.896 22.856 45.792 22.12 45.584 21.464C45.392 20.792 45.104 20.224 44.72 19.76C44.352 19.28 43.888 18.912 43.328 18.656C42.784 18.4 42.168 18.272 41.48 18.272C40.776 18.272 40.152 18.408 39.608 18.68C39.064 18.936 38.6 19.304 38.216 19.784C37.848 20.248 37.56 20.816 37.352 21.488C37.16 22.144 37.064 22.872 37.064 23.672ZM49.76 23.672C49.76 25.096 49.544 26.352 49.112 27.44C48.696 28.512 48.12 29.416 47.384 30.152C46.648 30.872 45.768 31.416 44.744 31.784C43.736 32.152 42.648 32.336 41.48 32.336C40.344 32.336 39.272 32.152 38.264 31.784C37.256 31.416 36.376 30.872 35.624 30.152C34.872 29.416 34.28 28.512 33.848 27.44C33.416 26.352 33.2 25.096 33.2 23.672C33.2 22.248 33.424 21 33.872 19.928C34.32 18.84 34.92 17.928 35.672 17.192C36.44 16.456 37.32 15.904 38.312 15.536C39.32 15.168 40.376 14.984 41.48 14.984C42.616 14.984 43.688 15.168 44.696 15.536C45.704 15.904 46.584 16.456 47.336 17.192C48.088 17.928 48.68 18.84 49.112 19.928C49.544 21 49.76 22.248 49.76 23.672ZM53.8409 19.808C54.4489 19.632 55.2329 19.472 56.1929 19.328C57.1529 19.168 58.1609 19.088 59.2169 19.088C60.2889 19.088 61.1769 19.232 61.8809 19.52C62.6009 19.792 63.1689 20.184 63.5849 20.696C64.0009 21.208 64.2969 21.816 64.4729 22.52C64.6489 23.224 64.7369 24.008 64.7369 24.872V32H61.1609V25.304C61.1609 24.152 61.0089 23.336 60.7049 22.856C60.4009 22.376 59.8329 22.136 59.0009 22.136C58.7449 22.136 58.4729 22.152 58.1849 22.184C57.8969 22.2 57.6409 22.224 57.4169 22.256V32H53.8409V19.808ZM72.7498 32H69.1738V19.376H72.7498V32ZM73.0858 15.728C73.0858 16.384 72.8698 16.904 72.4378 17.288C72.0218 17.656 71.5258 17.84 70.9498 17.84C70.3738 17.84 69.8698 17.656 69.4378 17.288C69.0218 16.904 68.8138 16.384 68.8138 15.728C68.8138 15.072 69.0218 14.56 69.4378 14.192C69.8698 13.808 70.3738 13.616 70.9498 13.616C71.5258 13.616 72.0218 13.808 72.4378 14.192C72.8698 14.56 73.0858 15.072 73.0858 15.728Z" fill="#E53637"/>
<path d="M84.2472 25.304C84.2472 24.152 84.0952 23.336 83.7912 22.856C83.5032 22.376 82.9992 22.136 82.2792 22.136C82.0552 22.136 81.8232 22.152 81.5832 22.184C81.3432 22.2 81.1112 22.224 80.8872 22.256V32H77.3112V19.808C77.6152 19.728 77.9672 19.648 78.3672 19.568C78.7832 19.472 79.2152 19.392 79.6632 19.328C80.1272 19.248 80.5992 19.192 81.0792 19.16C81.5592 19.112 82.0312 19.088 82.4952 19.088C83.4072 19.088 84.1432 19.208 84.7032 19.448C85.2792 19.672 85.7512 19.944 86.1192 20.264C86.6312 19.896 87.2152 19.608 87.8712 19.4C88.5432 19.192 89.1592 19.088 89.7192 19.088C90.7272 19.088 91.5512 19.232 92.1912 19.52C92.8472 19.792 93.3672 20.184 93.7512 20.696C94.1352 21.208 94.3992 21.816 94.5432 22.52C94.6872 23.224 94.7592 24.008 94.7592 24.872V32H91.1832V25.304C91.1832 24.152 91.0312 23.336 90.7272 22.856C90.4392 22.376 89.9352 22.136 89.2152 22.136C89.0232 22.136 88.7512 22.184 88.3992 22.28C88.0632 22.376 87.7832 22.496 87.5592 22.64C87.6712 23.008 87.7432 23.4 87.7752 23.816C87.8072 24.216 87.8232 24.648 87.8232 25.112V32H84.2472V25.304ZM98.6066 25.784C98.6066 24.664 98.7746 23.688 99.1106 22.856C99.4626 22.008 99.9186 21.304 100.479 20.744C101.039 20.184 101.679 19.76 102.399 19.472C103.135 19.184 103.887 19.04 104.655 19.04C106.447 19.04 107.863 19.592 108.903 20.696C109.943 21.784 110.463 23.392 110.463 25.52C110.463 25.728 110.455 25.96 110.439 26.216C110.423 26.456 110.407 26.672 110.391 26.864H102.279C102.359 27.6 102.703 28.184 103.311 28.616C103.919 29.048 104.735 29.264 105.759 29.264C106.415 29.264 107.055 29.208 107.679 29.096C108.319 28.968 108.839 28.816 109.239 28.64L109.719 31.544C109.527 31.64 109.271 31.736 108.951 31.832C108.631 31.928 108.271 32.008 107.871 32.072C107.487 32.152 107.071 32.216 106.623 32.264C106.175 32.312 105.727 32.336 105.279 32.336C104.143 32.336 103.151 32.168 102.303 31.832C101.471 31.496 100.775 31.04 100.215 30.464C99.6706 29.872 99.2626 29.176 98.9906 28.376C98.7346 27.576 98.6066 26.712 98.6066 25.784ZM107.007 24.416C106.991 24.112 106.935 23.816 106.839 23.528C106.759 23.24 106.623 22.984 106.431 22.76C106.255 22.536 106.023 22.352 105.735 22.208C105.463 22.064 105.119 21.992 104.703 21.992C104.303 21.992 103.959 22.064 103.671 22.208C103.383 22.336 103.143 22.512 102.951 22.736C102.759 22.96 102.607 23.224 102.495 23.528C102.399 23.816 102.327 24.112 102.279 24.416H107.007Z" fill="white"/>
<path d="M0 5.85L10.35 0V36L0 29.8266V5.85Z" fill="#E53637"/>
<path d="M13.5 36V10.35L24.3 16.65V30.15L13.5 36Z" fill="white"/>
</svg>
