<svg width="12" height="13" viewBox="0 0 12 13" fill="none" xmlns="http://www.w3.org/2000/svg">
<path d="M0.55957 1.77954C0.559526 1.60768 0.606724 1.43911 0.696006 1.29226C0.785288 1.14541 0.913218 1.02593 1.06582 0.946876C1.21841 0.867819 1.38981 0.83223 1.56126 0.843997C1.73272 0.855765 1.89764 0.914436 2.03801 1.0136L8.72519 5.73391C8.84784 5.82048 8.94791 5.93523 9.01698 6.06852C9.08605 6.2018 9.1221 6.34973 9.1221 6.49985C9.1221 6.64997 9.08605 6.79789 9.01698 6.93118C8.94791 7.06447 8.84784 7.17922 8.72519 7.26579L2.03801 11.9861C1.89764 12.0853 1.73272 12.1439 1.56126 12.1557C1.38981 12.1675 1.21841 12.1319 1.06582 12.0528C0.913218 11.9738 0.785288 11.8543 0.696006 11.7074C0.606724 11.5606 0.559526 11.392 0.55957 11.2202V1.77954Z" fill="#B7B7B7"/>
<path d="M11.8096 1.57812C11.8096 1.39164 11.7355 1.2128 11.6036 1.08094C11.4718 0.949079 11.2929 0.875 11.1064 0.875C10.92 0.875 10.7411 0.949079 10.6093 1.08094C10.4774 1.2128 10.4033 1.39164 10.4033 1.57812V11.4219C10.4033 11.6084 10.4774 11.7872 10.6093 11.9191C10.7411 12.0509 10.92 12.125 11.1064 12.125C11.2929 12.125 11.4718 12.0509 11.6036 11.9191C11.7355 11.7872 11.8096 11.6084 11.8096 11.4219V1.57812Z" fill="#B7B7B7"/>
</svg>
