<svg width="13" height="13" viewBox="0 0 13 13" fill="none" xmlns="http://www.w3.org/2000/svg">
<g clip-path="url(#clip0_604_195)">
<path d="M6.00318 1.18457C5.34462 0.420774 4.45027 -0.00986718 3.51673 -0.0126814C2.5832 -0.0154957 1.6869 0.409748 1.0249 1.16956C0.36669 1.93374 -0.00169351 2.96837 0.000744446 4.046C0.0031824 5.12362 0.376242 6.15603 1.0379 6.91623L6.13752 12.8042C6.2391 12.9214 6.37686 12.9873 6.5205 12.9873C6.66415 12.9873 6.80191 12.9214 6.90349 12.8042L11.9771 6.95125C12.635 6.18712 13.0032 5.15275 13.0007 4.07543C12.9983 2.99811 12.6254 1.96598 11.9641 1.20583C11.6378 0.826807 11.2499 0.525745 10.8227 0.319848C10.3955 0.113951 9.93734 0.007257 9.47441 0.00586325C9.01147 0.00446949 8.55284 0.108404 8.12472 0.311725C7.6966 0.515047 7.30739 0.813769 6.97933 1.19082L6.49504 1.7511L6.00318 1.18457V1.18457Z" fill="#B7B7B7"/>
</g>
<defs>
<clipPath id="clip0_604_195">
<rect width="13" height="13" fill="white"/>
</clipPath>
</defs>
</svg>
