<svg width="17" height="17" viewBox="0 0 17 17" fill="none" xmlns="http://www.w3.org/2000/svg">
<path d="M7.08311 13.4584C6.91761 13.4587 6.75722 13.4011 6.62978 13.2955C6.55806 13.236 6.49877 13.163 6.45531 13.0805C6.41185 12.9981 6.38508 12.908 6.37653 12.8152C6.36797 12.7224 6.37781 12.6289 6.40546 12.5399C6.43312 12.4509 6.47806 12.3683 6.5377 12.2967L9.71103 8.50004L6.65103 4.69629C6.59219 4.62384 6.54825 4.54047 6.52174 4.45098C6.49523 4.36149 6.48666 4.26764 6.49653 4.17483C6.50641 4.08201 6.53453 3.99207 6.57927 3.91016C6.62402 3.82825 6.68452 3.75599 6.75728 3.69754C6.83057 3.63306 6.9164 3.58442 7.00937 3.55467C7.10235 3.52493 7.20047 3.51473 7.29758 3.52471C7.39469 3.53468 7.48868 3.56462 7.57367 3.61265C7.65866 3.66068 7.7328 3.72575 7.79145 3.80379L11.2127 8.05379C11.3169 8.18053 11.3738 8.33951 11.3738 8.50358C11.3738 8.66765 11.3169 8.82663 11.2127 8.95337L7.67103 13.2034C7.59997 13.2891 7.50971 13.3569 7.40756 13.4012C7.30541 13.4455 7.19426 13.4651 7.08311 13.4584Z" fill="white"/>
</svg>
