<svg width="14" height="11" viewBox="0 0 14 11" fill="none" xmlns="http://www.w3.org/2000/svg">
<path d="M13.4499 2.8838C13.3743 2.6272 13.2575 2.38106 13.103 2.15255C12.9547 1.91483 12.765 1.69834 12.5405 1.51067C12.2152 1.22966 11.8299 1.00613 11.4062 0.852547C10.5532 0.549151 9.59665 0.549151 8.74367 0.852547C8.34314 0.999478 7.97515 1.20568 7.65617 1.46192L7.6093 1.51067L6.99992 2.0388L6.39055 1.51067L6.34367 1.46192C6.02469 1.20568 5.6567 0.999478 5.25617 0.852547C4.40319 0.549151 3.44665 0.549151 2.59367 0.852547C2.16991 1.00613 1.78463 1.22966 1.4593 1.51067C1.01432 1.88591 0.699332 2.36154 0.549921 2.8838C0.470436 3.14901 0.432594 3.42231 0.437421 3.6963C0.437421 3.95386 0.474921 4.21061 0.549921 4.46005C0.628516 4.71196 0.741832 4.95475 0.887421 5.18317C1.04465 5.41799 1.23694 5.63381 1.4593 5.82505L6.99992 10.6269L12.5405 5.82505C12.7627 5.63573 12.953 5.4188 13.103 5.18317C13.4075 4.73232 13.5662 4.21869 13.5624 3.6963C13.5673 3.42231 13.5294 3.14901 13.4499 2.8838ZM12.5124 4.20817C12.4001 4.57942 12.177 4.91849 11.8655 5.1913L6.98117 9.4163L2.0968 5.1913C1.93763 5.05237 1.79906 4.8968 1.6843 4.72817C1.5763 4.56135 1.49134 4.38409 1.43117 4.20005C1.38313 4.01603 1.35799 3.82808 1.35617 3.63942C1.35744 3.44537 1.38258 3.25198 1.43117 3.06255C1.48958 2.87798 1.57463 2.70054 1.6843 2.53442C1.7968 2.3638 1.93555 2.20942 2.0968 2.0713C2.33764 1.86536 2.62057 1.70005 2.93117 1.5838C3.55706 1.3668 4.25528 1.3668 4.88117 1.5838C5.19055 1.69511 5.46992 1.85842 5.70617 2.06317L6.98117 3.1763L8.25617 2.06317C8.49226 1.85806 8.77257 1.69518 9.08117 1.5838C9.70706 1.3668 10.4053 1.3668 11.0312 1.5838C11.3415 1.69998 11.6246 1.86573 11.8655 2.0713C12.0287 2.20536 12.1655 2.36136 12.2687 2.53442C12.4858 2.8663 12.5989 3.24166 12.5968 3.62317C12.6096 3.81949 12.5906 4.01639 12.5405 4.20817H12.5124Z" fill="white"/>
</svg>
