<svg width="15" height="15" viewBox="0 0 15 15" fill="none" xmlns="http://www.w3.org/2000/svg">
<path fill-rule="evenodd" clip-rule="evenodd" d="M3.75 0C2.75544 0 1.80161 0.395088 1.09835 1.09835C0.395088 1.80161 0 2.75544 0 3.75V11.25C0 12.2446 0.395088 13.1984 1.09835 13.9017C1.80161 14.6049 2.75544 15 3.75 15H11.25C12.2446 15 13.1984 14.6049 13.9017 13.9017C14.6049 13.1984 15 12.2446 15 11.25V3.75C15 2.75544 14.6049 1.80161 13.9017 1.09835C13.1984 0.395088 12.2446 0 11.25 0H3.75ZM10.2975 6.513C10.3649 6.4411 10.4174 6.35664 10.4521 6.26443C10.4869 6.17222 10.5031 6.07408 10.4999 5.9756C10.4967 5.87713 10.4741 5.78025 10.4335 5.69049C10.3928 5.60074 10.3349 5.51987 10.263 5.4525C10.1911 5.38513 10.1066 5.33258 10.0144 5.29786C9.92222 5.26313 9.82408 5.24691 9.7256 5.25011C9.62713 5.25332 9.53025 5.27589 9.44049 5.31653C9.35074 5.35718 9.26987 5.4151 9.2025 5.487L6.89025 7.9545L5.748 6.93975C5.59834 6.81534 5.40619 6.75397 5.21212 6.76861C5.01806 6.78326 4.83729 6.87276 4.70799 7.01822C4.5787 7.16367 4.51101 7.35369 4.51922 7.54813C4.52743 7.74258 4.6109 7.92621 4.752 8.06025L6.4395 9.56025C6.58552 9.68995 6.77637 9.75758 6.97147 9.74876C7.16657 9.73994 7.35054 9.65535 7.48425 9.513L10.2968 6.513H10.2975Z" fill="#B7B7B7"/>
</svg>
