<svg width="13" height="13" viewBox="0 0 13 13" fill="none" xmlns="http://www.w3.org/2000/svg">
<path d="M3.12203 8.37483C3.66869 8.3732 4.19467 8.16567 4.59516 7.79358L8.50766 10.0292C8.37657 10.5415 8.43436 11.0838 8.67044 11.5569C8.90653 12.03 9.30513 12.4023 9.79326 12.6056C10.2814 12.8088 10.8264 12.8295 11.3285 12.6638C11.8306 12.498 12.2563 12.157 12.5275 11.7031C12.7987 11.2492 12.8974 10.7128 12.8055 10.1921C12.7135 9.6714 12.4371 9.20123 12.0269 8.86765C11.6166 8.53408 11.0999 8.35942 10.5714 8.37566C10.0429 8.3919 9.53792 8.59794 9.14891 8.95608L5.23641 6.72045C5.27766 6.5642 5.30016 6.40233 5.30391 6.24045L9.14766 4.04358C9.51777 4.38031 9.99242 4.57951 10.492 4.60777C10.9916 4.63603 11.4857 4.49162 11.8914 4.19877C12.2971 3.90592 12.5898 3.48245 12.7203 2.9994C12.8508 2.51635 12.8112 2.00311 12.6082 1.54578C12.4051 1.08846 12.051 0.714871 11.6052 0.487698C11.1593 0.260524 10.6489 0.193586 10.1596 0.298114C9.67028 0.402641 9.23179 0.672274 8.91769 1.06178C8.60359 1.45128 8.433 1.93696 8.43453 2.43733C8.43703 2.61733 8.46141 2.7967 8.50766 2.97045L4.95516 4.99983C4.74914 4.68111 4.46376 4.42148 4.12704 4.24643C3.79033 4.07139 3.41386 3.98695 3.03464 4.00142C2.65542 4.01589 2.28649 4.12876 1.96409 4.32896C1.64169 4.52915 1.37692 4.80978 1.19578 5.14326C1.01465 5.47674 0.923397 5.85161 0.930979 6.23103C0.93856 6.61045 1.04472 6.98138 1.23903 7.30736C1.43334 7.63334 1.70911 7.90316 2.03925 8.09031C2.36939 8.27747 2.74253 8.37552 3.12203 8.37483Z" fill="#B7B7B7"/>
</svg>
