<svg width="12" height="13" viewBox="0 0 12 13" fill="none" xmlns="http://www.w3.org/2000/svg">
<path d="M11.8096 1.77954C11.8096 1.60768 11.7624 1.43911 11.6731 1.29226C11.5839 1.14541 11.4559 1.02593 11.3033 0.946876C11.1507 0.867819 10.9793 0.83223 10.8079 0.843997C10.6364 0.855765 10.4715 0.914436 10.3311 1.0136L3.64395 5.73391C3.5213 5.82048 3.42123 5.93523 3.35216 6.06852C3.28309 6.2018 3.24704 6.34973 3.24704 6.49985C3.24704 6.64997 3.28309 6.79789 3.35216 6.93118C3.42123 7.06447 3.5213 7.17922 3.64395 7.26579L10.3311 11.9861C10.4715 12.0853 10.6364 12.1439 10.8079 12.1557C10.9793 12.1675 11.1507 12.1319 11.3033 12.0528C11.4559 11.9738 11.5839 11.8543 11.6731 11.7074C11.7624 11.5606 11.8096 11.392 11.8096 11.2202V1.77954Z" fill="#B7B7B7"/>
<path d="M0.55957 1.57812C0.55957 1.39164 0.63365 1.2128 0.765511 1.08094C0.897373 0.949079 1.07621 0.875 1.2627 0.875C1.44918 0.875 1.62802 0.949079 1.75988 1.08094C1.89174 1.2128 1.96582 1.39164 1.96582 1.57812V11.4219C1.96582 11.6084 1.89174 11.7872 1.75988 11.9191C1.62802 12.0509 1.44918 12.125 1.2627 12.125C1.07621 12.125 0.897373 12.0509 0.765511 11.9191C0.63365 11.7872 0.55957 11.6084 0.55957 11.4219V1.57812Z" fill="#B7B7B7"/>
</svg>
