<svg width="15" height="14" viewBox="0 0 15 14" fill="none" xmlns="http://www.w3.org/2000/svg">
<path d="M12.8411 2.68926C12.5432 2.39117 12.1895 2.15472 11.8001 1.99339C11.4107 1.83206 10.9934 1.74902 10.572 1.74902C10.1505 1.74902 9.7332 1.83206 9.34385 1.99339C8.9545 2.15472 8.60075 2.39117 8.30281 2.68926L7.68448 3.30759L7.06614 2.68926C6.46432 2.08743 5.64808 1.74934 4.79698 1.74934C3.94587 1.74934 3.12963 2.08743 2.52781 2.68926C1.92599 3.29108 1.58789 4.10732 1.58789 4.95842C1.58789 5.80952 1.92599 6.62577 2.52781 7.22759L3.14614 7.84592L7.68448 12.3843L12.2228 7.84592L12.8411 7.22759C13.1392 6.92965 13.3757 6.5759 13.537 6.18655C13.6983 5.79719 13.7814 5.37987 13.7814 4.95842C13.7814 4.53697 13.6983 4.11965 13.537 3.7303C13.3757 3.34095 13.1392 2.9872 12.8411 2.68926V2.68926Z" stroke="#B7B7B7" stroke-width="2" stroke-linecap="round" stroke-linejoin="round"/>
</svg>
