<svg width="25" height="25" viewBox="0 0 25 25" fill="none" xmlns="http://www.w3.org/2000/svg">
<path d="M20.3125 11.3281H18.6523V5.85938C18.6523 4.1333 17.2534 2.73438 15.5273 2.73438H9.47266C7.74658 2.73438 6.34766 4.1333 6.34766 5.85938V11.3281H4.6875C4.25537 11.3281 3.90625 11.6772 3.90625 12.1094V21.4844C3.90625 21.9165 4.25537 22.2656 4.6875 22.2656H20.3125C20.7446 22.2656 21.0938 21.9165 21.0938 21.4844V12.1094C21.0938 11.6772 20.7446 11.3281 20.3125 11.3281ZM13.1836 17.1143V18.4082C13.1836 18.5156 13.0957 18.6035 12.9883 18.6035H12.0117C11.9043 18.6035 11.8164 18.5156 11.8164 18.4082V17.1143C11.6149 16.9696 11.4645 16.7647 11.3868 16.529C11.3091 16.2934 11.3082 16.0392 11.3842 15.8031C11.4602 15.5669 11.6092 15.3609 11.8097 15.2148C12.0102 15.0687 12.2519 14.99 12.5 14.99C12.7481 14.99 12.9898 15.0687 13.1903 15.2148C13.3908 15.3609 13.5398 15.5669 13.6158 15.8031C13.6918 16.0392 13.6909 16.2934 13.6132 16.529C13.5355 16.7647 13.3851 16.9696 13.1836 17.1143ZM16.8945 11.3281H8.10547V5.85938C8.10547 5.10498 8.71826 4.49219 9.47266 4.49219H15.5273C16.2817 4.49219 16.8945 5.10498 16.8945 5.85938V11.3281Z" fill="#B7B7B7"/>
</svg>
